# xmcd CD database file generated by Grip 3.3.1
# 
# Track frame offsets:
#       150
#       13545
#       24633
#       36301
#       47349
#       59337
#       71305
#       83190
#       93539
#       104603
#       114476
#       127757
#       139684
#       152620
#       165131
#       178020
#       189075
#       200924
#       211678
#       222635
#       235990
#       247625
#       259569
#       271229
#       283435
#       296175
#       309444
#       321165
#       333346
#       342597
# 
# Disc length: 4739 seconds
# 
# Revision: 3
# Processed by: cddbd v1.5.2PL0 Copyright (c) Steve Scherf et al.
# Submitted via: Grip 3.3.1
# 
DISCID=b212811e
DTITLE=Various Artist - Ham Hocks and Cornbread - Disc 3
DYEAR=2005
DGENRE=Blues
TTITLE0=Hal Singer - Cornbread
TTITLE1=Rufus Thomas - Gonna Bring My Baby Back (feat. Bobby Plater's Orc
TTITLE1=hestra)
TTITLE2=Roy Hawkins - On My Way
TTITLE3=H-Bomb Ferguson - Bookie's Blues
TTITLE4=Dick Davis - Screamin' Boogie
TTITLE5=Percy Mayfield - Baby, You're Still a Square (feat. Monroe Tucker
TTITLE5=and His Orchestra)
TTITLE6=Sylvester Mike - Rubber Leg Woman
TTITLE7=Roy Milton - Baby, You Don't Know
TTITLE8=Fred Jackson - Buck Fever
TTITLE9=Smiling Smokey Lynn - Run, Mister Rabbit, Run
TTITLE10=Jo-Jo Adams - Don't Give It Away (feat. Freddie Williams and His Or
TTITLE10=chestra)
TTITLE11=Big John Greer - Rockin' with Big John
TTITLE12=Zuzu Bollin - Why Don't You Eat Where You Slept Last Night
TTITLE13=Big Al Sears - Marshall Plan
TTITLE14=Jack McVea - Inflation Blues
TTITLE15=Gene Phillips - Flying Home
TTITLE16=Duke Henderson - Lucy Brown
TTITLE17=Calvin Boze - Safronia B
TTITLE18=Morris Lane - Down the Lane
TTITLE19=Eddie "Cleanhead" Vinson - I'm Gonna Wind Your Clock
TTITLE20=Freddie Kohlman - Easy Rockin'
TTITLE21=Felix Gross - Walkin' the Floor
TTITLE22=Paul Williams - Boogie, Mr. Williams
TTITLE23=King Perry - Keep a Dollar in Your Pocket
TTITLE24=Johnny Hodges - Castle Rock
TTITLE25=Sonny Parker - She Sets My Soul on Fire (feat. Gladys Hampton's B
TTITLE25=lues Boys)
TTITLE26=Big Joe Turner - Wine-O-Baby (feat. Pete Johnson and His Orchestra)
TTITLE27=Todd Rhodes - Page Boy Shuffle
TTITLE28=Peppermint Harris - The Blues Pick on Me
TTITLE29=James Von Streeter - Landslide
EXTD=
EXTT0=
EXTT1=
EXTT2=
EXTT3=
EXTT4=
EXTT5=
EXTT6=
EXTT7=
EXTT8=
EXTT9=
EXTT10=
EXTT11=
EXTT12=
EXTT13=
EXTT14=
EXTT15=
EXTT16=
EXTT17=
EXTT18=
EXTT19=
EXTT20=
EXTT21=
EXTT22=
EXTT23=
EXTT24=
EXTT25=
EXTT26=
EXTT27=
EXTT28=
EXTT29=
PLAYORDER=
